<?xml version="1.0" standalone="no"?>
<!DOCTYPE svg PUBLIC "-//W3C//DTD SVG 20010904//EN"
 "http://www.w3.org/TR/2001/REC-SVG-20010904/DTD/svg10.dtd">
<svg version="1.0" xmlns="http://www.w3.org/2000/svg"
 width="1881.000000pt" height="1881.000000pt" viewBox="0 0 1881.000000 1881.000000"
 preserveAspectRatio="xMidYMid meet">
<metadata>
Created by potrace 1.11, written by Peter Selinger 2001-2013
</metadata>
<g transform="translate(0.000000,1881.000000) scale(0.100000,-0.100000)"
fill="#000000" stroke="none">
<path d="M7238 13085 c-2 -2 -46 -6 -98 -10 -52 -3 -108 -8 -125 -10 -138 -20
-530 -26 -770 -12 -219 12 -487 19 -520 13 -67 -13 -110 -78 -248 -376 -19
-41 -49 -106 -67 -145 -18 -38 -55 -117 -83 -175 -27 -58 -62 -132 -77 -165
-29 -62 -49 -107 -192 -410 -47 -99 -98 -207 -113 -240 -16 -33 -61 -129 -102
-213 -40 -85 -73 -155 -73 -157 0 -2 -36 -78 -80 -170 -44 -92 -80 -168 -80
-170 0 -2 -43 -92 -95 -200 -52 -109 -95 -199 -95 -200 0 -3 -154 -326 -196
-409 -13 -28 -24 -54 -24 -59 0 -5 -9 -22 -21 -38 -11 -16 -18 -29 -16 -29 13
0 -257 -523 -298 -579 -41 -56 -49 -62 -73 -56 -80 20 -164 138 -284 400 -20
44 -51 111 -68 150 -41 88 -319 700 -355 780 -15 33 -47 102 -71 153 -24 51
-44 94 -44 97 0 2 -18 43 -41 92 -22 48 -94 206 -160 350 -65 144 -130 285
-143 315 -94 206 -399 874 -421 923 -15 33 -42 93 -61 133 -19 41 -34 76 -34
78 0 3 -24 53 -54 113 -63 127 -110 199 -138 210 -28 10 -335 6 -993 -15 -162
-5 -447 -11 -675 -14 -193 -3 -253 -33 -245 -120 2 -19 6 -100 9 -180 4 -80 9
-185 11 -235 11 -212 22 -542 30 -887 3 -125 7 -282 10 -350 2 -68 7 -224 10
-348 3 -124 8 -281 10 -350 23 -779 23 -1662 0 -2105 -2 -33 -6 -139 -10 -235
-3 -96 -8 -202 -10 -235 -1 -33 -6 -132 -10 -220 -4 -88 -8 -191 -10 -230 -7
-131 -15 -300 -21 -455 -3 -85 -7 -189 -9 -230 -2 -41 -6 -253 -9 -470 -7
-447 -6 -457 55 -477 27 -9 268 -11 942 -10 l906 2 31 30 c16 16 35 47 41 70
11 38 7 613 -6 1140 -3 99 -7 270 -10 380 -2 110 -7 326 -11 480 -4 154 -7
481 -8 727 -1 406 1 449 16 464 30 30 26 36 215 -381 52 -115 108 -238 124
-273 16 -35 29 -65 29 -67 0 -3 39 -93 86 -202 47 -109 92 -213 100 -230 8
-18 21 -49 29 -68 8 -19 22 -50 30 -67 8 -18 27 -64 43 -103 38 -92 124 -294
156 -367 8 -18 27 -62 41 -98 15 -36 33 -80 41 -98 8 -17 20 -47 28 -65 8 -17
28 -66 46 -107 18 -41 39 -91 47 -110 8 -19 19 -44 24 -55 66 -152 92 -211
118 -268 17 -37 31 -69 31 -72 0 -2 18 -43 40 -90 22 -47 40 -88 40 -90 0 -2
22 -50 49 -107 27 -56 70 -148 96 -203 26 -55 56 -120 68 -145 12 -25 31 -53
42 -63 55 -47 165 -68 350 -66 156 1 194 14 236 78 14 22 104 232 199 468 95
235 179 442 186 458 13 31 60 147 154 380 28 72 58 144 65 160 7 17 66 161
130 320 64 160 123 304 130 320 41 97 135 325 135 331 0 3 7 20 15 37 8 18 57
133 108 257 192 456 309 710 329 710 5 0 16 -17 25 -37 11 -29 15 -75 15 -193
0 -162 -10 -712 -17 -885 -2 -55 -6 -185 -10 -290 -3 -104 -8 -239 -10 -300
-5 -108 -8 -201 -20 -595 -11 -337 -14 -467 -16 -740 -1 -290 2 -312 59 -355
27 -20 43 -20 989 -20 960 0 962 0 990 21 52 39 57 62 56 259 -1 185 -10 624
-18 845 -2 69 -7 191 -10 271 -2 80 -7 202 -10 270 -5 121 -8 201 -20 524 -4
88 -8 198 -10 245 -24 610 -24 1502 0 2210 2 58 6 175 9 260 3 85 8 229 11
320 3 91 7 212 10 270 2 58 7 202 11 320 3 118 7 260 9 315 10 314 14 954 7
979 -4 16 -21 39 -36 50 -24 19 -43 21 -161 22 -74 1 -136 0 -137 -1z"/>
<path d="M10789 13016 c-2 -2 -31 -6 -64 -9 -97 -10 -204 -26 -275 -43 -36 -9
-74 -17 -84 -20 -50 -10 -229 -70 -304 -101 -199 -82 -357 -178 -591 -358
-115 -88 -325 -310 -434 -457 -240 -325 -395 -701 -442 -1074 -4 -27 -9 -60
-12 -74 -3 -14 -6 -124 -8 -245 -5 -327 21 -516 108 -800 35 -114 51 -154 124
-303 87 -180 144 -272 265 -427 140 -179 341 -365 551 -510 83 -57 101 -66
112 -54 13 13 349 608 404 714 14 28 29 52 34 53 4 2 7 7 7 12 0 5 24 50 54
102 29 51 66 116 81 143 15 28 90 161 166 298 l139 247 -50 61 c-173 208 -174
461 -1 644 102 108 216 155 369 150 169 -6 260 -36 341 -115 133 -129 143
-378 25 -605 -28 -53 -195 -368 -234 -440 -92 -172 -115 -215 -158 -295 -66
-125 -121 -228 -152 -285 -15 -27 -53 -99 -85 -160 -32 -60 -88 -166 -125
-235 -37 -69 -95 -179 -130 -245 -34 -66 -71 -133 -80 -150 -10 -16 -46 -84
-80 -150 -34 -66 -70 -133 -80 -150 -9 -16 -43 -79 -75 -140 -32 -60 -70 -132
-85 -160 -15 -27 -50 -93 -77 -145 -28 -52 -100 -187 -160 -300 -61 -113 -138
-259 -173 -325 -35 -66 -74 -140 -88 -165 -14 -25 -52 -97 -85 -160 -33 -63
-63 -119 -67 -125 -4 -5 -36 -64 -70 -130 -34 -66 -81 -154 -103 -195 -22 -41
-56 -104 -75 -140 -19 -36 -56 -106 -83 -157 l-49 -91 2245 0 2245 0 0 1004
c0 552 -3 1004 -7 1005 -5 0 -265 1 -580 1 l-572 1 96 186 c53 102 141 274
196 381 55 107 131 256 170 330 38 74 124 241 190 370 66 129 137 267 157 306
32 60 64 130 120 259 33 75 101 321 114 410 4 22 9 54 11 70 3 17 7 42 9 58 9
56 19 215 19 302 0 88 -11 299 -18 333 -1 9 -6 37 -9 62 -41 298 -155 616
-314 874 -164 266 -363 483 -659 716 -39 31 -221 145 -293 183 -193 104 -491
205 -685 231 -42 6 -87 13 -145 22 -38 6 -485 15 -491 10z"/>
<path d="M15100 11843 l0 -1003 380 0 c209 0 380 -4 380 -9 0 -4 -113 -308
-250 -675 -138 -367 -248 -671 -245 -676 3 -4 38 -9 78 -9 39 -1 88 -3 107 -6
19 -2 58 -6 85 -9 78 -8 124 -16 215 -37 393 -91 688 -320 784 -609 109 -327
29 -684 -207 -923 -247 -251 -598 -309 -970 -161 -110 44 -252 114 -324 160
-29 19 -54 30 -54 26 -1 -4 -2 -445 -3 -980 -1 -642 2 -976 9 -981 28 -22 386
-129 484 -146 19 -3 37 -8 40 -10 4 -2 25 -6 47 -9 22 -4 51 -9 64 -11 14 -3
43 -7 65 -10 22 -3 51 -7 65 -10 133 -27 656 -27 810 -1 14 3 42 7 63 10 20 3
54 9 75 12 112 17 465 119 497 144 6 4 21 11 35 15 61 17 296 144 410 221 494
331 832 779 985 1308 14 49 27 101 30 115 3 14 7 37 10 51 12 61 26 151 32
225 14 148 6 616 -11 643 -2 4 -7 30 -10 57 -6 58 -46 230 -74 325 -137 459
-480 895 -974 1240 -43 29 -78 56 -78 60 0 3 22 58 49 121 27 62 93 218 146
344 54 127 105 248 115 270 10 22 107 249 215 505 260 616 274 648 295 695 10
22 54 128 99 235 46 107 88 209 96 225 28 63 113 265 111 267 0 1 -828 2
-1838 3 l-1838 2 0 -1004z"/>
</g>
</svg>
